<?xml version="1.0" encoding="UTF-8" standalone="no"?>
<!DOCTYPE svg PUBLIC "-//W3C//DTD SVG 1.1//EN" "http://www.w3.org/Graphics/SVG/1.1/DTD/svg11.dtd">
<svg width="100%" height="100%" viewBox="0 0 1981 288" version="1.1" xmlns="http://www.w3.org/2000/svg" xmlns:xlink="http://www.w3.org/1999/xlink" xml:space="preserve" xmlns:serif="http://www.serif.com/" style="fill-rule:evenodd;clip-rule:evenodd;stroke-linejoin:round;stroke-miterlimit:2;">
    <g transform="matrix(1,0,0,1,-249.894735,-541.761892)">
        <g transform="matrix(0.603112,0,0,0.603112,-176.896252,-352.72653)">
            <g transform="matrix(633.805044,0,0,633.805044,688,1953)">
                <path d="M0.292,0.012C0.239,0.012 0.194,0.001 0.154,-0.022C0.116,-0.044 0.085,-0.074 0.064,-0.114C0.042,-0.152 0.031,-0.197 0.031,-0.248C0.031,-0.299 0.042,-0.343 0.065,-0.383C0.087,-0.421 0.118,-0.452 0.157,-0.475C0.196,-0.497 0.241,-0.508 0.292,-0.508C0.356,-0.508 0.41,-0.491 0.454,-0.458C0.498,-0.425 0.526,-0.379 0.537,-0.32L0.394,-0.32C0.389,-0.343 0.377,-0.362 0.357,-0.375C0.339,-0.388 0.316,-0.395 0.291,-0.395C0.268,-0.395 0.247,-0.389 0.229,-0.378C0.21,-0.366 0.196,-0.349 0.185,-0.327C0.174,-0.305 0.169,-0.279 0.169,-0.248C0.169,-0.225 0.172,-0.205 0.178,-0.188C0.184,-0.17 0.193,-0.155 0.204,-0.142C0.214,-0.129 0.227,-0.12 0.242,-0.113C0.257,-0.106 0.273,-0.103 0.291,-0.103C0.308,-0.103 0.324,-0.106 0.338,-0.112C0.352,-0.117 0.364,-0.126 0.374,-0.137C0.384,-0.147 0.391,-0.161 0.394,-0.176L0.537,-0.176C0.526,-0.119 0.498,-0.073 0.454,-0.039C0.41,-0.005 0.356,0.012 0.292,0.012Z" style="fill:white;fill-rule:nonzero;"/>
            </g>
            <g transform="matrix(633.805044,0,0,633.805044,1048.001265,1953)">
                <path d="M0.286,0.012C0.238,0.012 0.195,0.001 0.156,-0.021C0.117,-0.043 0.087,-0.074 0.065,-0.113C0.042,-0.152 0.031,-0.197 0.031,-0.248C0.031,-0.299 0.042,-0.345 0.065,-0.384C0.088,-0.423 0.118,-0.453 0.157,-0.475C0.196,-0.497 0.239,-0.508 0.286,-0.508C0.334,-0.508 0.377,-0.497 0.416,-0.475C0.455,-0.453 0.485,-0.423 0.508,-0.384C0.53,-0.345 0.541,-0.299 0.541,-0.248C0.541,-0.197 0.53,-0.151 0.507,-0.113C0.484,-0.073 0.454,-0.043 0.416,-0.021C0.377,0.001 0.334,0.012 0.286,0.012ZM0.285,-0.102C0.307,-0.102 0.327,-0.107 0.345,-0.119C0.362,-0.13 0.377,-0.146 0.388,-0.168C0.399,-0.189 0.404,-0.216 0.404,-0.248C0.404,-0.281 0.399,-0.308 0.388,-0.33C0.377,-0.351 0.362,-0.367 0.345,-0.378C0.327,-0.389 0.308,-0.394 0.287,-0.394C0.266,-0.394 0.246,-0.389 0.228,-0.378C0.21,-0.367 0.196,-0.351 0.185,-0.33C0.174,-0.308 0.169,-0.281 0.169,-0.248C0.169,-0.216 0.174,-0.189 0.185,-0.168C0.196,-0.146 0.21,-0.13 0.228,-0.119C0.245,-0.107 0.264,-0.102 0.285,-0.102Z" style="fill:white;fill-rule:nonzero;"/>
            </g>
            <g transform="matrix(633.805044,0,0,633.805044,1410.537751,1953)">
                <path d="M0.046,-0L0.046,-0.496L0.162,-0.496L0.173,-0.415L0.176,-0.415C0.192,-0.444 0.214,-0.466 0.242,-0.483C0.27,-0.5 0.304,-0.508 0.345,-0.508C0.386,-0.508 0.421,-0.499 0.45,-0.481C0.479,-0.464 0.501,-0.438 0.515,-0.404C0.53,-0.37 0.538,-0.328 0.538,-0.278L0.538,-0L0.404,-0L0.404,-0.266C0.404,-0.307 0.396,-0.339 0.379,-0.361C0.362,-0.383 0.336,-0.394 0.299,-0.394C0.276,-0.394 0.256,-0.389 0.238,-0.378C0.22,-0.366 0.206,-0.351 0.196,-0.331C0.186,-0.31 0.181,-0.285 0.181,-0.256L0.181,-0L0.046,-0Z" style="fill:white;fill-rule:nonzero;"/>
            </g>
            <g transform="matrix(633.805044,0,0,633.805044,1777.510871,1953)">
                <path d="M0.046,-0L0.046,-0.496L0.162,-0.496L0.173,-0.415L0.176,-0.415C0.192,-0.444 0.214,-0.466 0.242,-0.483C0.27,-0.5 0.304,-0.508 0.345,-0.508C0.386,-0.508 0.421,-0.499 0.45,-0.481C0.479,-0.464 0.501,-0.438 0.515,-0.404C0.53,-0.37 0.538,-0.328 0.538,-0.278L0.538,-0L0.404,-0L0.404,-0.266C0.404,-0.307 0.396,-0.339 0.379,-0.361C0.362,-0.383 0.336,-0.394 0.299,-0.394C0.276,-0.394 0.256,-0.389 0.238,-0.378C0.22,-0.366 0.206,-0.351 0.196,-0.331C0.186,-0.31 0.181,-0.285 0.181,-0.256L0.181,-0L0.046,-0Z" style="fill:white;fill-rule:nonzero;"/>
            </g>
            <g transform="matrix(633.805044,0,0,633.805044,2144.483992,1953)">
                <path d="M0.29,0.012C0.239,0.012 0.195,0.001 0.155,-0.02C0.117,-0.041 0.086,-0.071 0.064,-0.11C0.042,-0.149 0.031,-0.193 0.031,-0.243C0.031,-0.295 0.042,-0.341 0.064,-0.381C0.085,-0.42 0.116,-0.451 0.154,-0.474C0.194,-0.497 0.239,-0.508 0.291,-0.508C0.34,-0.508 0.384,-0.497 0.421,-0.476C0.458,-0.455 0.488,-0.425 0.509,-0.389C0.53,-0.351 0.541,-0.31 0.541,-0.263L0.541,-0.24C0.541,-0.232 0.54,-0.224 0.539,-0.215L0.127,-0.215L0.127,-0.298L0.404,-0.298C0.402,-0.329 0.391,-0.354 0.369,-0.373C0.349,-0.392 0.322,-0.401 0.291,-0.401C0.268,-0.401 0.246,-0.396 0.227,-0.386C0.208,-0.375 0.192,-0.359 0.181,-0.339C0.17,-0.318 0.164,-0.291 0.164,-0.259L0.164,-0.23C0.164,-0.203 0.169,-0.179 0.18,-0.16C0.191,-0.14 0.206,-0.125 0.225,-0.114C0.244,-0.103 0.265,-0.098 0.289,-0.098C0.314,-0.098 0.334,-0.103 0.351,-0.115C0.368,-0.126 0.38,-0.14 0.389,-0.157L0.527,-0.157C0.517,-0.126 0.501,-0.097 0.479,-0.072C0.457,-0.046 0.43,-0.025 0.398,-0.011C0.366,0.004 0.33,0.012 0.29,0.012Z" style="fill:white;fill-rule:nonzero;"/>
            </g>
            <g transform="matrix(633.805044,0,0,633.805044,2503.851452,1953)">
                <path d="M0.292,0.012C0.239,0.012 0.194,0.001 0.154,-0.022C0.116,-0.044 0.085,-0.074 0.064,-0.114C0.042,-0.152 0.031,-0.197 0.031,-0.248C0.031,-0.299 0.042,-0.343 0.065,-0.383C0.087,-0.421 0.118,-0.452 0.157,-0.475C0.196,-0.497 0.241,-0.508 0.292,-0.508C0.356,-0.508 0.41,-0.491 0.454,-0.458C0.498,-0.425 0.526,-0.379 0.537,-0.32L0.394,-0.32C0.389,-0.343 0.377,-0.362 0.357,-0.375C0.339,-0.388 0.316,-0.395 0.291,-0.395C0.268,-0.395 0.247,-0.389 0.229,-0.378C0.21,-0.366 0.196,-0.349 0.185,-0.327C0.174,-0.305 0.169,-0.279 0.169,-0.248C0.169,-0.225 0.172,-0.205 0.178,-0.188C0.184,-0.17 0.193,-0.155 0.204,-0.142C0.214,-0.129 0.227,-0.12 0.242,-0.113C0.257,-0.106 0.273,-0.103 0.291,-0.103C0.308,-0.103 0.324,-0.106 0.338,-0.112C0.352,-0.117 0.364,-0.126 0.374,-0.137C0.384,-0.147 0.391,-0.161 0.394,-0.176L0.537,-0.176C0.526,-0.119 0.498,-0.073 0.454,-0.039C0.41,-0.005 0.356,0.012 0.292,0.012Z" style="fill:white;fill-rule:nonzero;"/>
            </g>
            <g transform="matrix(633.805044,0,0,633.805044,2863.218912,1953)">
                <path d="M0.272,-0C0.237,-0 0.206,-0.006 0.179,-0.017C0.153,-0.028 0.133,-0.046 0.118,-0.072C0.103,-0.097 0.096,-0.132 0.096,-0.177L0.096,-0.387L0.011,-0.387L0.011,-0.496L0.096,-0.496L0.111,-0.631L0.231,-0.631L0.231,-0.496L0.363,-0.496L0.363,-0.387L0.231,-0.387L0.231,-0.175C0.231,-0.152 0.236,-0.136 0.246,-0.127C0.256,-0.118 0.273,-0.113 0.297,-0.113L0.36,-0.113L0.36,-0L0.272,-0Z" style="fill:white;fill-rule:nonzero;"/>
            </g>
        </g>
        <g transform="matrix(0,0.736575,-1.919953,0,6156.376848,-312.690229)">
            <rect x="1489.145" y="2045.347" width="61.855" height="255.653" style="fill:white;"/>
        </g>
        <g transform="matrix(1,0,0,1,1723.515646,754.715813)">
            <g transform="matrix(337.486405,0,0,337.486405,0,0)">
                <path d="M0.046,-0L0.046,-0.496L0.162,-0.496L0.173,-0.415L0.176,-0.415C0.192,-0.444 0.214,-0.466 0.242,-0.483C0.27,-0.5 0.304,-0.508 0.345,-0.508C0.386,-0.508 0.421,-0.499 0.45,-0.481C0.479,-0.464 0.501,-0.438 0.515,-0.404C0.53,-0.37 0.538,-0.328 0.538,-0.278L0.538,-0L0.404,-0L0.404,-0.266C0.404,-0.307 0.396,-0.339 0.379,-0.361C0.362,-0.383 0.336,-0.394 0.299,-0.394C0.276,-0.394 0.256,-0.389 0.238,-0.378C0.22,-0.366 0.206,-0.351 0.196,-0.331C0.186,-0.31 0.181,-0.285 0.181,-0.256L0.181,-0L0.046,-0Z" style="fill:white;fill-rule:nonzero;"/>
            </g>
            <g transform="matrix(337.486405,0,0,337.486405,195.404628,0)">
                <path d="M0.29,0.012C0.239,0.012 0.195,0.001 0.155,-0.02C0.117,-0.041 0.086,-0.071 0.064,-0.11C0.042,-0.149 0.031,-0.193 0.031,-0.243C0.031,-0.295 0.042,-0.341 0.064,-0.381C0.085,-0.42 0.116,-0.451 0.154,-0.474C0.194,-0.497 0.239,-0.508 0.291,-0.508C0.34,-0.508 0.384,-0.497 0.421,-0.476C0.458,-0.455 0.488,-0.425 0.509,-0.389C0.53,-0.351 0.541,-0.31 0.541,-0.263L0.541,-0.24C0.541,-0.232 0.54,-0.224 0.539,-0.215L0.127,-0.215L0.127,-0.298L0.404,-0.298C0.402,-0.329 0.391,-0.354 0.369,-0.373C0.349,-0.392 0.322,-0.401 0.291,-0.401C0.268,-0.401 0.246,-0.396 0.227,-0.386C0.208,-0.375 0.192,-0.359 0.181,-0.339C0.17,-0.318 0.164,-0.291 0.164,-0.259L0.164,-0.23C0.164,-0.203 0.169,-0.179 0.18,-0.16C0.191,-0.14 0.206,-0.125 0.225,-0.114C0.244,-0.103 0.265,-0.098 0.289,-0.098C0.314,-0.098 0.334,-0.103 0.351,-0.115C0.368,-0.126 0.38,-0.14 0.389,-0.157L0.527,-0.157C0.517,-0.126 0.501,-0.097 0.479,-0.072C0.457,-0.046 0.43,-0.025 0.398,-0.011C0.366,0.004 0.33,0.012 0.29,0.012Z" style="fill:white;fill-rule:nonzero;"/>
            </g>
            <g transform="matrix(337.486405,0,0,337.486405,384.397015,0)">
                <path d="M0.272,-0C0.237,-0 0.206,-0.006 0.179,-0.017C0.153,-0.028 0.133,-0.046 0.118,-0.072C0.103,-0.097 0.096,-0.132 0.096,-0.177L0.096,-0.387L0.011,-0.387L0.011,-0.496L0.096,-0.496L0.111,-0.631L0.231,-0.631L0.231,-0.496L0.363,-0.496L0.363,-0.387L0.231,-0.387L0.231,-0.175C0.231,-0.152 0.236,-0.136 0.246,-0.127C0.256,-0.118 0.273,-0.113 0.297,-0.113L0.36,-0.113L0.36,-0L0.272,-0Z" style="fill:white;fill-rule:nonzero;"/>
            </g>
        </g>
    </g>
</svg>
